
<svg xmlns="http://www.w3.org/2000/svg">
  <defs>
    <svg id="abacus" viewBox="0 0 512 512"><path d="M0 256v256h512V0h-60v90h-63.5l-2.4-4.5c-3-5.8-11.9-14.1-17.6-16.6-10.9-4.8-23.4-4.5-35.1 1-11 5.2-19.2 15.7-21.2 27.3l-.8 4.3-1.3-5c-4.2-16.4-16.4-27.7-33-30.6-11.9-2.1-25.4 2.3-34.4 11.3-4.8 4.9-10.7 15.5-10.7 19.5 0 1.2-.4 2.5-1 2.8-.6.4-1-.6-1-2.3 0-4.8-6.6-16.6-11.7-21.1-12.7-11.2-30.6-13.7-45.9-6.5-5.7 2.7-14.4 11.3-17.1 16.8l-1.7 3.6H60V0H0v256zm315.6-132.3c3.4 7.1 10.1 13.5 18.2 17.5 6.3 3.1 7.2 3.3 17.7 3.3 10 0 11.6-.3 17.2-2.9 7-3.2 14.8-10.7 18.2-17.4l2.2-4.2 31.2.2 31.2.3.3 52.7.2 52.8h-93.8l-1.3-3.1c-.7-1.8-2.9-5.3-5-7.9-14.4-18.2-43.9-18.6-60.4-.9-5.2 5.7-9.5 14.3-9.5 19.1 0 3.2-1.5 1.1-2.9-4.2-2.8-9.9-11.9-20.2-21.9-24.8-5-2.3-7.1-2.6-16.2-2.6-9.8-.1-10.9.1-17.1 3.1-10.8 5.3-19.1 15.5-22.1 26.9l-1.2 4.9-.7-4.2c-2-11.3-10.7-22-22.7-27.6-6.2-2.9-7.5-3.2-16.7-3.2-8.1.1-11.1.5-15.8 2.4-6.9 2.7-16.4 11.5-19.3 17.8l-1.9 4.2-31.8.1H60l.2-52.8.3-52.7 46.1-.3 46.1-.2 3.6 5.9c4.6 7.3 10.3 12.6 17.6 16 5 2.3 6.8 2.6 16.6 2.6 10.2 0 11.5-.2 17.5-3.1 11.2-5.3 19.9-16 21.6-26.3.7-4.2 2.4-4.7 2.4-.7 0 3.8 5.9 14.3 10.7 19.1 8.9 8.9 21.6 13.1 34.3 11.3 16-2.1 29-14.1 33.2-30.4l1.2-4.9.8 4.5c.4 2.4 1.9 6.8 3.4 9.7zM204.2 256.8c3.8 9.9 14.6 19.4 25.7 22.6 20 5.8 42.4-5.8 48.7-25.2 2.1-6.5 3.4-8.6 3.4-5.4 0 4.6 4.3 13.3 9 18.5 12.1 13.3 31.6 17.3 47.6 9.8 7.4-3.5 15-10.7 17.8-16.9l1.9-4.2H452v105h-63.6l-1.7-3.6c-2.7-5.5-11.4-14.1-17.2-16.8-23.8-11.3-53 2.8-57.3 27.6l-.8 4.3-1.2-4.9c-4.2-16.4-16.6-27.8-33.1-30.7-11.9-2.1-25.4 2.3-34.4 11.3-4.8 4.8-10.7 15.5-10.7 19.4 0 4.2-1.4 3.3-2.7-1.8-3.8-14.7-16.6-26.1-32.5-28.8-15.5-2.7-32.2 5.1-40.3 18.9l-3 5.1H60V256h63.7l1.8 4c2.3 5 9 12 14.9 15.5 15.4 9 35.8 6.4 48.4-6.2 5.5-5.5 10.1-14.1 11-20.5l.6-4.3.9 3.5c.5 1.9 1.8 5.9 2.9 8.8zm112.3 139c7.8 14.3 25.7 23.1 41.3 20.2 12-2.2 24.4-11 29-20.8l1.6-3.2H452v90H60v-90h93.5l2.7 4.8c3.6 6.4 10.6 12.7 17.6 16 5.1 2.4 6.9 2.7 16.7 2.7 10.3 0 11.4-.2 17.7-3.2 11.1-5.2 19.7-15.8 21.4-26.2.7-4.2 2.4-4.7 2.4-.7 0 3.9 6 14.5 11.1 19.6 9.3 9.3 22.9 13.3 36.1 10.5 15.5-3.2 27-14.4 30.9-30.1l1.3-4.9 1.1 5c.6 2.8 2.4 7.4 4 10.3z"/></svg>
    <svg id="rocket" viewBox="0 0 512 512"><path d="M413 1c-10.3 1-31 4.4-37.3 6.1l-4 1.1L437.5 74c36.3 36.3 66.1 65.8 66.2 65.6.8-.8 4.4-19.7 5.9-31.1 1.2-8.9 1.7-20.1 1.7-35.5.1-22.9-1-34.8-5.1-56l-1.8-9.4-6-1.3C473.8 1.2 435.9-1.2 413 1zM333.5 20.1c-36 14.4-68.7 36-96 63.3C226.6 94.3 124 216.6 124 218.7c0 .4 38 38.8 84.4 85.2 64 64 84.7 84.1 85.8 83.5 5.5-3.3 125.4-104.2 133.7-112.5 26.4-26.5 47.5-57.8 61.5-91l4.4-10.6-77.7-77.6-77.6-77.5-5 1.9zm2.5 113.6c16.1 4.4 30.8 16.6 37.8 31.5 4.8 9.8 6.2 16.1 6.2 26.8s-1.4 17-6.2 26.8c-7.1 15-21.4 26.8-38.3 31.8-9 2.6-23.1 2.4-32.5-.5-43.5-13.2-58.2-66.4-27.3-99.1 7.5-8 13.3-11.9 22.8-15.5 12.2-4.6 25.2-5.3 37.5-1.8z"/><path d="M308.5 164c-15.4 6.1-23.1 25.2-16.2 40.3 4.9 10.7 13.6 16.7 25.3 17.5 12.8.8 23.3-5 29.2-16.2 2.3-4.4 2.7-6.3 2.7-13.6s-.4-9.2-2.7-13.5c-3.1-6-7.7-10.5-13.8-13.7-6.2-3.2-17.5-3.6-24.5-.8zM135 76.5 105.5 106l19.5 19.5c10.7 10.7 19.8 19.4 20.2 19.3.4-.2 12.2-14.3 26.3-31.3 14.1-17.1 30.3-36.1 36.1-42.3 6.7-7.1 10.1-11.4 9.2-11.7-2.8-1-49.8-12.5-51-12.5-.7 0-14.6 13.3-30.8 29.5zM115.2 289.3 98 306.5l53.8 53.8 53.7 53.7 17.5-17.5 17.5-17.5-53.5-53.5c-29.4-29.4-53.7-53.5-54-53.5-.3 0-8.3 7.8-17.8 17.3zM441.9 303.9c-7.6 6.9-58.7 49.8-74.9 62.8-.2.2 8.5 9.2 19.3 20.1l19.7 19.7 29.9-30 29.8-30-6.6-26.1-6.6-26.1-10.6 9.6zM38.2 366.3 0 404.5l10.8 10.8L21.5 426l38.3-38.3L98 349.5l-10.8-10.8L76.5 328l-38.3 38.3zM70.5 420l-49 49 10.8 10.7L43 490.5l49-49 49-49-10.8-10.8-10.7-10.7-49 49zM124.2 452.3 86 490.5l10.8 10.8 10.7 10.7 38.3-38.3 38.2-38.2-10.8-10.8-10.7-10.7-38.3 38.3z"/></svg>
    <svg id="ladder" viewBox="0 0 512 512"><path d="M298.5 1.5c-20.2 3.8-37.1 12-52.5 25.5l-6.6 5.8-5.9-3.5c-7.4-4.4-18.1-8.7-28.3-11.5-11.1-3-37.3-3.1-48.2-.1-20.5 5.6-35 13.6-49 27-14.4 13.6-24.1 30-29.1 48.8-2.1 8-2.1 8-8 11.8-13.3 8.6-24.3 21.1-31.5 36.2-6.8 14-8.7 22.4-8.7 39 0 15.3 1.5 22.9 7.1 36.3 9 21.4 30.1 41.2 52.4 48.9 12.7 4.4 20.2 5.2 49.1 5.3H166v211H0v30h512v-30H346V271h26.4c29.4 0 38.8-1.1 51.2-5.9 11.3-4.4 20.9-10.6 30-19.3 13.5-13 21.8-27.5 26.1-45.8 2.6-11.1 2.4-29.9-.6-40.9-7.1-26.8-24.2-47.8-48.6-59.7l-9.2-4.5-1.2-7.2c-6.7-40.2-37.8-74-77.9-84.4-12.4-3.2-31.8-4-43.7-1.8zM196 166v15h120v-30h30v120h-30v30H196v-30h-30V151h30v15zm120 180v15H196v-30h120v15zm0 61v15H196v-30h120v15zm0 60v15H196v-30h120v15z"/><path d="M196 226v15h120v-30H196v15z"/></svg>
    <svg id="left-arrow" viewBox="0 0 25 25"><path style="fill:#232326" d="M24 12.001H2.914l5.294-5.295-.707-.707L1 12.501l6.5 6.5.707-.707-5.293-5.293H24v-1z" data-name="Left"/></svg>
    <svg id="right-arrow" viewBox="0 0 25 25"><path style="fill:#232326" d="m17.5 5.999-.707.707 5.293 5.293H1v1h21.086l-5.294 5.295.707.707L24 12.499l-6.5-6.5z" data-name="Right"/></svg>
  </defs>
</svg>